<mxfile host="app.diagrams.net" modified="2023-03-31T14:33:11.208Z" agent="Mozilla/5.0 (Windows NT 10.0; Win64; x64) AppleWebKit/537.36 (KHTML, like Gecko) Chrome/111.0.0.0 Safari/537.36" etag="UqpGN_GigbUOtISPZoZC" version="21.1.2" type="device">
  <diagram name="Page-1" id="ivi_GzzBbnTKShinMN6c">
    <mxGraphModel dx="582" dy="634" grid="1" gridSize="10" guides="1" tooltips="1" connect="1" arrows="1" fold="1" page="1" pageScale="1" pageWidth="850" pageHeight="1100" math="0" shadow="0">
      <root>
        <mxCell id="0" />
        <mxCell id="1" parent="0" />
        <mxCell id="JiS2Ytl3aRO11iRvN7Su-1" value="Played" style="rhombus;whiteSpace=wrap;html=1;fillColor=#e1d5e7;strokeColor=#9673a6;" parent="1" vertex="1">
          <mxGeometry x="570" y="480" width="80" height="80" as="geometry" />
        </mxCell>
        <mxCell id="JiS2Ytl3aRO11iRvN7Su-3" value="Tournament" style="rounded=0;whiteSpace=wrap;html=1;fillColor=#f8cecc;strokeColor=#b85450;" parent="1" vertex="1">
          <mxGeometry x="560" y="610" width="100" height="40" as="geometry" />
        </mxCell>
        <mxCell id="JiS2Ytl3aRO11iRvN7Su-4" value="" style="endArrow=none;html=1;rounded=0;exitX=0.5;exitY=0;exitDx=0;exitDy=0;entryX=0.5;entryY=1;entryDx=0;entryDy=0;" parent="1" source="JiS2Ytl3aRO11iRvN7Su-3" target="JiS2Ytl3aRO11iRvN7Su-1" edge="1">
          <mxGeometry width="50" height="50" relative="1" as="geometry">
            <mxPoint x="560" y="540" as="sourcePoint" />
            <mxPoint x="610" y="490" as="targetPoint" />
          </mxGeometry>
        </mxCell>
        <mxCell id="JiS2Ytl3aRO11iRvN7Su-6" value="Match" style="rounded=0;whiteSpace=wrap;html=1;fillColor=#f8cecc;strokeColor=#b85450;" parent="1" vertex="1">
          <mxGeometry x="560" y="380" width="100" height="40" as="geometry" />
        </mxCell>
        <mxCell id="JiS2Ytl3aRO11iRvN7Su-9" value="(1,N)" style="text;html=1;strokeColor=none;fillColor=none;align=center;verticalAlign=middle;whiteSpace=wrap;rounded=0;" parent="1" vertex="1">
          <mxGeometry x="620" y="560" width="60" height="30" as="geometry" />
        </mxCell>
        <mxCell id="JiS2Ytl3aRO11iRvN7Su-10" value="(1,1)" style="text;html=1;strokeColor=none;fillColor=none;align=center;verticalAlign=middle;whiteSpace=wrap;rounded=0;" parent="1" vertex="1">
          <mxGeometry x="610" y="440" width="60" height="30" as="geometry" />
        </mxCell>
        <mxCell id="JiS2Ytl3aRO11iRvN7Su-11" value="Refereeing" style="rhombus;whiteSpace=wrap;html=1;fillColor=#e1d5e7;strokeColor=#9673a6;" parent="1" vertex="1">
          <mxGeometry x="380" y="360" width="80" height="80" as="geometry" />
        </mxCell>
        <mxCell id="JiS2Ytl3aRO11iRvN7Su-15" value="" style="endArrow=none;html=1;rounded=0;exitX=1;exitY=0.5;exitDx=0;exitDy=0;" parent="1" source="JiS2Ytl3aRO11iRvN7Su-11" edge="1">
          <mxGeometry width="50" height="50" relative="1" as="geometry">
            <mxPoint x="510" y="450" as="sourcePoint" />
            <mxPoint x="560" y="400" as="targetPoint" />
          </mxGeometry>
        </mxCell>
        <mxCell id="JiS2Ytl3aRO11iRvN7Su-17" value="Referee" style="rounded=0;whiteSpace=wrap;html=1;fillColor=#f8cecc;strokeColor=#b85450;" parent="1" vertex="1">
          <mxGeometry x="370" y="500" width="100" height="40" as="geometry" />
        </mxCell>
        <mxCell id="JiS2Ytl3aRO11iRvN7Su-19" value="(1,N)" style="text;html=1;strokeColor=none;fillColor=none;align=center;verticalAlign=middle;whiteSpace=wrap;rounded=0;" parent="1" vertex="1">
          <mxGeometry x="470" y="400" width="60" height="30" as="geometry" />
        </mxCell>
        <mxCell id="JiS2Ytl3aRO11iRvN7Su-20" value="(1,N)" style="text;html=1;align=center;verticalAlign=middle;resizable=0;points=[];autosize=1;strokeColor=none;fillColor=none;" parent="1" vertex="1">
          <mxGeometry x="425" y="450" width="50" height="30" as="geometry" />
        </mxCell>
        <mxCell id="JiS2Ytl3aRO11iRvN7Su-22" value="Playing" style="rhombus;whiteSpace=wrap;html=1;fillColor=#e1d5e7;strokeColor=#9673a6;" parent="1" vertex="1">
          <mxGeometry x="780" y="360" width="80" height="80" as="geometry" />
        </mxCell>
        <mxCell id="JiS2Ytl3aRO11iRvN7Su-23" value="" style="endArrow=none;html=1;rounded=0;exitX=1;exitY=0.5;exitDx=0;exitDy=0;entryX=0;entryY=0.5;entryDx=0;entryDy=0;" parent="1" source="JiS2Ytl3aRO11iRvN7Su-6" target="JiS2Ytl3aRO11iRvN7Su-22" edge="1">
          <mxGeometry width="50" height="50" relative="1" as="geometry">
            <mxPoint x="680" y="450" as="sourcePoint" />
            <mxPoint x="730" y="400" as="targetPoint" />
          </mxGeometry>
        </mxCell>
        <mxCell id="JiS2Ytl3aRO11iRvN7Su-24" value="Players" style="rounded=0;whiteSpace=wrap;html=1;fillColor=#f8cecc;strokeColor=#b85450;" parent="1" vertex="1">
          <mxGeometry x="970" y="380" width="100" height="40" as="geometry" />
        </mxCell>
        <mxCell id="JiS2Ytl3aRO11iRvN7Su-26" value="(1,N)" style="text;html=1;strokeColor=none;fillColor=none;align=center;verticalAlign=middle;whiteSpace=wrap;rounded=0;" parent="1" vertex="1">
          <mxGeometry x="890" y="410" width="60" height="30" as="geometry" />
        </mxCell>
        <mxCell id="JiS2Ytl3aRO11iRvN7Su-27" value="(1,N)" style="text;html=1;strokeColor=none;fillColor=none;align=center;verticalAlign=middle;whiteSpace=wrap;rounded=0;" parent="1" vertex="1">
          <mxGeometry x="690" y="400" width="60" height="30" as="geometry" />
        </mxCell>
        <mxCell id="JiS2Ytl3aRO11iRvN7Su-29" value="Participating" style="rhombus;whiteSpace=wrap;html=1;fillColor=#e1d5e7;strokeColor=#9673a6;" parent="1" vertex="1">
          <mxGeometry x="780" y="590" width="80" height="80" as="geometry" />
        </mxCell>
        <mxCell id="JiS2Ytl3aRO11iRvN7Su-31" value="" style="endArrow=none;html=1;rounded=0;exitX=1;exitY=0.5;exitDx=0;exitDy=0;" parent="1" source="JiS2Ytl3aRO11iRvN7Su-3" edge="1">
          <mxGeometry width="50" height="50" relative="1" as="geometry">
            <mxPoint x="730" y="680" as="sourcePoint" />
            <mxPoint x="780" y="630" as="targetPoint" />
          </mxGeometry>
        </mxCell>
        <mxCell id="JiS2Ytl3aRO11iRvN7Su-33" value="(1,N)" style="text;html=1;strokeColor=none;fillColor=none;align=center;verticalAlign=middle;whiteSpace=wrap;rounded=0;" parent="1" vertex="1">
          <mxGeometry x="690" y="630" width="60" height="30" as="geometry" />
        </mxCell>
        <mxCell id="JiS2Ytl3aRO11iRvN7Su-34" value="(1,1)" style="text;html=1;strokeColor=none;fillColor=none;align=center;verticalAlign=middle;whiteSpace=wrap;rounded=0;" parent="1" vertex="1">
          <mxGeometry x="1010" y="440" width="60" height="30" as="geometry" />
        </mxCell>
        <mxCell id="JiS2Ytl3aRO11iRvN7Su-35" value="&lt;font style=&quot;font-size: 9px;&quot;&gt;&lt;u&gt;Personal ID&lt;/u&gt;&lt;/font&gt;" style="ellipse;whiteSpace=wrap;html=1;" parent="1" vertex="1">
          <mxGeometry x="390" y="615" width="60" height="30" as="geometry" />
        </mxCell>
        <mxCell id="JiS2Ytl3aRO11iRvN7Su-36" value="" style="endArrow=none;html=1;rounded=0;entryX=0.5;entryY=0;entryDx=0;entryDy=0;" parent="1" target="gjMS_P8bk0o3SLN0zVJh-17" edge="1">
          <mxGeometry width="50" height="50" relative="1" as="geometry">
            <mxPoint x="420" y="540" as="sourcePoint" />
            <mxPoint x="419.81" y="560" as="targetPoint" />
          </mxGeometry>
        </mxCell>
        <mxCell id="JiS2Ytl3aRO11iRvN7Su-37" value="&lt;font size=&quot;1&quot;&gt;&lt;u&gt;Name&lt;/u&gt;&lt;/font&gt;" style="ellipse;whiteSpace=wrap;html=1;" parent="1" vertex="1">
          <mxGeometry x="580" y="765" width="60" height="30" as="geometry" />
        </mxCell>
        <mxCell id="JiS2Ytl3aRO11iRvN7Su-38" value="&lt;font size=&quot;1&quot;&gt;&lt;span style=&quot;font-size: 9px;&quot;&gt;Starting date&lt;/span&gt;&lt;/font&gt;" style="ellipse;whiteSpace=wrap;html=1;" parent="1" vertex="1">
          <mxGeometry x="470" y="765" width="60" height="30" as="geometry" />
        </mxCell>
        <mxCell id="JiS2Ytl3aRO11iRvN7Su-39" value="" style="endArrow=none;html=1;rounded=0;entryX=0.5;entryY=1;entryDx=0;entryDy=0;exitX=0.5;exitY=0;exitDx=0;exitDy=0;" parent="1" source="gjMS_P8bk0o3SLN0zVJh-18" target="JiS2Ytl3aRO11iRvN7Su-3" edge="1">
          <mxGeometry width="50" height="50" relative="1" as="geometry">
            <mxPoint x="560" y="690" as="sourcePoint" />
            <mxPoint x="610" y="640" as="targetPoint" />
          </mxGeometry>
        </mxCell>
        <mxCell id="JiS2Ytl3aRO11iRvN7Su-40" value="" style="endArrow=none;html=1;rounded=0;entryX=0.5;entryY=1;entryDx=0;entryDy=0;exitX=0.5;exitY=0;exitDx=0;exitDy=0;" parent="1" source="gjMS_P8bk0o3SLN0zVJh-19" target="JiS2Ytl3aRO11iRvN7Su-3" edge="1">
          <mxGeometry width="50" height="50" relative="1" as="geometry">
            <mxPoint x="570" y="700" as="sourcePoint" />
            <mxPoint x="620" y="660" as="targetPoint" />
            <Array as="points">
              <mxPoint x="500" y="700" />
              <mxPoint x="610" y="700" />
            </Array>
          </mxGeometry>
        </mxCell>
        <mxCell id="JiS2Ytl3aRO11iRvN7Su-60" value="&lt;font style=&quot;font-size: 9px;&quot;&gt;&lt;u&gt;Personal ID&lt;/u&gt;&lt;/font&gt;" style="ellipse;whiteSpace=wrap;html=1;fillColor=#fff2cc;strokeColor=#d6b656;" parent="1" vertex="1">
          <mxGeometry x="990" y="765" width="60" height="30" as="geometry" />
        </mxCell>
        <mxCell id="JiS2Ytl3aRO11iRvN7Su-61" value="&lt;font style=&quot;font-size: 9px;&quot;&gt;&lt;u&gt;Match ID&lt;/u&gt;&lt;/font&gt;" style="ellipse;whiteSpace=wrap;html=1;" parent="1" vertex="1">
          <mxGeometry x="387.5" y="245" width="60" height="30" as="geometry" />
        </mxCell>
        <mxCell id="JiS2Ytl3aRO11iRvN7Su-62" value="&lt;font size=&quot;1&quot;&gt;&lt;span style=&quot;font-size: 9px;&quot;&gt;Successful/Unsuccessful serves&lt;/span&gt;&lt;/font&gt;" style="ellipse;whiteSpace=wrap;html=1;" parent="1" vertex="1">
          <mxGeometry x="1130" y="240" width="130" height="40" as="geometry" />
        </mxCell>
        <mxCell id="JiS2Ytl3aRO11iRvN7Su-63" value="&lt;font size=&quot;1&quot;&gt;&lt;span style=&quot;font-size: 9px;&quot;&gt;As serves&lt;/span&gt;&lt;/font&gt;" style="ellipse;whiteSpace=wrap;html=1;" parent="1" vertex="1">
          <mxGeometry x="487.5" y="245" width="60" height="30" as="geometry" />
        </mxCell>
        <mxCell id="JiS2Ytl3aRO11iRvN7Su-64" value="&lt;font size=&quot;1&quot;&gt;&lt;span style=&quot;font-size: 9px;&quot;&gt;Points&lt;/span&gt;&lt;/font&gt;" style="ellipse;whiteSpace=wrap;html=1;" parent="1" vertex="1">
          <mxGeometry x="817.5" y="245" width="60" height="30" as="geometry" />
        </mxCell>
        <mxCell id="JiS2Ytl3aRO11iRvN7Su-68" value="&lt;font size=&quot;1&quot;&gt;&lt;span style=&quot;font-size: 9px;&quot;&gt;Forced/Unforced errors&lt;/span&gt;&lt;/font&gt;" style="ellipse;whiteSpace=wrap;html=1;" parent="1" vertex="1">
          <mxGeometry x="985" y="240" width="130" height="40" as="geometry" />
        </mxCell>
        <mxCell id="JiS2Ytl3aRO11iRvN7Su-69" value="&lt;font size=&quot;1&quot;&gt;&lt;span style=&quot;font-size: 9px;&quot;&gt;Time played&lt;/span&gt;&lt;/font&gt;" style="ellipse;whiteSpace=wrap;html=1;" parent="1" vertex="1">
          <mxGeometry x="897.5" y="245" width="60" height="30" as="geometry" />
        </mxCell>
        <mxCell id="JiS2Ytl3aRO11iRvN7Su-71" value="&lt;font size=&quot;1&quot;&gt;&lt;span style=&quot;font-size: 9px;&quot;&gt;Resaults&lt;/span&gt;&lt;/font&gt;" style="ellipse;whiteSpace=wrap;html=1;" parent="1" vertex="1">
          <mxGeometry x="580" y="245" width="60" height="30" as="geometry" />
        </mxCell>
        <mxCell id="JiS2Ytl3aRO11iRvN7Su-72" value="" style="endArrow=none;html=1;rounded=0;entryX=0.5;entryY=1;entryDx=0;entryDy=0;exitX=0.5;exitY=0;exitDx=0;exitDy=0;" parent="1" source="JiS2Ytl3aRO11iRvN7Su-6" target="JiS2Ytl3aRO11iRvN7Su-61" edge="1">
          <mxGeometry width="50" height="50" relative="1" as="geometry">
            <mxPoint x="610" y="260" as="sourcePoint" />
            <mxPoint x="660" y="210" as="targetPoint" />
            <Array as="points">
              <mxPoint x="610" y="320" />
              <mxPoint x="418" y="320" />
            </Array>
          </mxGeometry>
        </mxCell>
        <mxCell id="JiS2Ytl3aRO11iRvN7Su-73" value="" style="endArrow=none;html=1;rounded=0;entryX=0.5;entryY=1;entryDx=0;entryDy=0;exitX=0.5;exitY=0;exitDx=0;exitDy=0;" parent="1" source="JiS2Ytl3aRO11iRvN7Su-6" target="JiS2Ytl3aRO11iRvN7Su-62" edge="1">
          <mxGeometry width="50" height="50" relative="1" as="geometry">
            <mxPoint x="610" y="260" as="sourcePoint" />
            <mxPoint x="530" y="190" as="targetPoint" />
            <Array as="points">
              <mxPoint x="610" y="320" />
              <mxPoint x="1195" y="320" />
            </Array>
          </mxGeometry>
        </mxCell>
        <mxCell id="JiS2Ytl3aRO11iRvN7Su-75" value="" style="endArrow=none;html=1;rounded=0;entryX=0.5;entryY=1;entryDx=0;entryDy=0;exitX=0.5;exitY=0;exitDx=0;exitDy=0;" parent="1" source="JiS2Ytl3aRO11iRvN7Su-6" target="JiS2Ytl3aRO11iRvN7Su-71" edge="1">
          <mxGeometry width="50" height="50" relative="1" as="geometry">
            <mxPoint x="610" y="260" as="sourcePoint" />
            <mxPoint x="660" y="210" as="targetPoint" />
          </mxGeometry>
        </mxCell>
        <mxCell id="JiS2Ytl3aRO11iRvN7Su-76" value="" style="endArrow=none;html=1;rounded=0;entryX=0.5;entryY=1;entryDx=0;entryDy=0;exitX=0.5;exitY=0;exitDx=0;exitDy=0;" parent="1" source="JiS2Ytl3aRO11iRvN7Su-6" target="JiS2Ytl3aRO11iRvN7Su-63" edge="1">
          <mxGeometry width="50" height="50" relative="1" as="geometry">
            <mxPoint x="610" y="260" as="sourcePoint" />
            <mxPoint x="660" y="210" as="targetPoint" />
            <Array as="points">
              <mxPoint x="610" y="320" />
              <mxPoint x="518" y="320" />
            </Array>
          </mxGeometry>
        </mxCell>
        <mxCell id="JiS2Ytl3aRO11iRvN7Su-77" value="" style="endArrow=none;html=1;rounded=0;entryX=0.5;entryY=1;entryDx=0;entryDy=0;exitX=0.5;exitY=0;exitDx=0;exitDy=0;" parent="1" source="JiS2Ytl3aRO11iRvN7Su-6" target="JiS2Ytl3aRO11iRvN7Su-64" edge="1">
          <mxGeometry width="50" height="50" relative="1" as="geometry">
            <mxPoint x="610" y="260" as="sourcePoint" />
            <mxPoint x="660" y="210" as="targetPoint" />
            <Array as="points">
              <mxPoint x="610" y="320" />
              <mxPoint x="847" y="320" />
            </Array>
          </mxGeometry>
        </mxCell>
        <mxCell id="JiS2Ytl3aRO11iRvN7Su-78" value="" style="endArrow=none;html=1;rounded=0;entryX=0.5;entryY=1;entryDx=0;entryDy=0;exitX=0.5;exitY=0;exitDx=0;exitDy=0;" parent="1" source="JiS2Ytl3aRO11iRvN7Su-6" target="gjMS_P8bk0o3SLN0zVJh-9" edge="1">
          <mxGeometry width="50" height="50" relative="1" as="geometry">
            <mxPoint x="610" y="260" as="sourcePoint" />
            <mxPoint x="660" y="210" as="targetPoint" />
            <Array as="points">
              <mxPoint x="610" y="320" />
              <mxPoint x="1050" y="320" />
            </Array>
          </mxGeometry>
        </mxCell>
        <mxCell id="JiS2Ytl3aRO11iRvN7Su-79" value="" style="endArrow=none;html=1;rounded=0;entryX=0.5;entryY=1;entryDx=0;entryDy=0;exitX=0.5;exitY=0;exitDx=0;exitDy=0;" parent="1" source="JiS2Ytl3aRO11iRvN7Su-6" target="JiS2Ytl3aRO11iRvN7Su-69" edge="1">
          <mxGeometry width="50" height="50" relative="1" as="geometry">
            <mxPoint x="610" y="260" as="sourcePoint" />
            <mxPoint x="660" y="210" as="targetPoint" />
            <Array as="points">
              <mxPoint x="610" y="320" />
              <mxPoint x="928" y="320" />
            </Array>
          </mxGeometry>
        </mxCell>
        <mxCell id="JiS2Ytl3aRO11iRvN7Su-81" value="&lt;font size=&quot;1&quot;&gt;&lt;span style=&quot;font-size: 9px;&quot;&gt;Successful/Unsuccessful serves&lt;/span&gt;&lt;/font&gt;" style="ellipse;whiteSpace=wrap;html=1;" parent="1" vertex="1">
          <mxGeometry x="690" y="760" width="130" height="40" as="geometry" />
        </mxCell>
        <mxCell id="JiS2Ytl3aRO11iRvN7Su-83" value="&lt;font size=&quot;1&quot;&gt;&lt;span style=&quot;font-size: 9px;&quot;&gt;As serves&lt;/span&gt;&lt;/font&gt;" style="ellipse;whiteSpace=wrap;html=1;fillColor=#fff2cc;strokeColor=#d6b656;" parent="1" vertex="1">
          <mxGeometry x="1140" y="765" width="60" height="30" as="geometry" />
        </mxCell>
        <mxCell id="JiS2Ytl3aRO11iRvN7Su-84" value="&lt;font size=&quot;1&quot;&gt;&lt;span style=&quot;font-size: 9px;&quot;&gt;Forced/Unforced errors&lt;/span&gt;&lt;/font&gt;" style="ellipse;whiteSpace=wrap;html=1;fillColor=#fff2cc;strokeColor=#d6b656;" parent="1" vertex="1">
          <mxGeometry x="840" y="760" width="130" height="40" as="geometry" />
        </mxCell>
        <mxCell id="JiS2Ytl3aRO11iRvN7Su-85" value="&lt;font size=&quot;1&quot;&gt;&lt;span style=&quot;font-size: 9px;&quot;&gt;Points&lt;/span&gt;&lt;/font&gt;" style="ellipse;whiteSpace=wrap;html=1;fillColor=#fff2cc;strokeColor=#d6b656;" parent="1" vertex="1">
          <mxGeometry x="1290" y="765" width="60" height="30" as="geometry" />
        </mxCell>
        <mxCell id="JiS2Ytl3aRO11iRvN7Su-86" value="&lt;font size=&quot;1&quot;&gt;&lt;span style=&quot;font-size: 9px;&quot;&gt;Time played&lt;/span&gt;&lt;/font&gt;" style="ellipse;whiteSpace=wrap;html=1;fillColor=#fff2cc;strokeColor=#d6b656;" parent="1" vertex="1">
          <mxGeometry x="1215" y="765" width="60" height="30" as="geometry" />
        </mxCell>
        <mxCell id="JiS2Ytl3aRO11iRvN7Su-88" value="&lt;font size=&quot;1&quot;&gt;&lt;span style=&quot;font-size: 9px;&quot;&gt;Stage&lt;/span&gt;&lt;/font&gt;" style="ellipse;whiteSpace=wrap;html=1;" parent="1" vertex="1">
          <mxGeometry x="737.5" y="245" width="60" height="30" as="geometry" />
        </mxCell>
        <mxCell id="JiS2Ytl3aRO11iRvN7Su-89" value="" style="endArrow=none;html=1;rounded=0;entryX=0.5;entryY=1;entryDx=0;entryDy=0;exitX=0.5;exitY=0;exitDx=0;exitDy=0;" parent="1" source="JiS2Ytl3aRO11iRvN7Su-6" target="JiS2Ytl3aRO11iRvN7Su-88" edge="1">
          <mxGeometry width="50" height="50" relative="1" as="geometry">
            <mxPoint x="610" y="260" as="sourcePoint" />
            <mxPoint x="655" y="210" as="targetPoint" />
            <Array as="points">
              <mxPoint x="610" y="320" />
              <mxPoint x="768" y="320" />
            </Array>
          </mxGeometry>
        </mxCell>
        <mxCell id="JiS2Ytl3aRO11iRvN7Su-92" value="&lt;font size=&quot;1&quot;&gt;Surface&lt;/font&gt;" style="ellipse;whiteSpace=wrap;html=1;" parent="1" vertex="1">
          <mxGeometry x="657.5" y="245" width="60" height="30" as="geometry" />
        </mxCell>
        <mxCell id="JiS2Ytl3aRO11iRvN7Su-97" value="" style="endArrow=none;html=1;rounded=0;entryX=0.5;entryY=1;entryDx=0;entryDy=0;exitX=0.5;exitY=0;exitDx=0;exitDy=0;" parent="1" source="JiS2Ytl3aRO11iRvN7Su-6" target="JiS2Ytl3aRO11iRvN7Su-92" edge="1">
          <mxGeometry width="50" height="50" relative="1" as="geometry">
            <mxPoint x="620" y="280" as="sourcePoint" />
            <mxPoint x="660" y="210" as="targetPoint" />
            <Array as="points">
              <mxPoint x="610" y="320" />
              <mxPoint x="688" y="320" />
            </Array>
          </mxGeometry>
        </mxCell>
        <mxCell id="JiS2Ytl3aRO11iRvN7Su-98" value="Player tournament profile" style="rounded=0;whiteSpace=wrap;html=1;fillColor=#f8cecc;strokeColor=#b85450;" parent="1" vertex="1">
          <mxGeometry x="970" y="610" width="100" height="40" as="geometry" />
        </mxCell>
        <mxCell id="JiS2Ytl3aRO11iRvN7Su-99" value="" style="endArrow=none;html=1;rounded=0;entryX=0;entryY=0.5;entryDx=0;entryDy=0;" parent="1" target="JiS2Ytl3aRO11iRvN7Su-98" edge="1">
          <mxGeometry width="50" height="50" relative="1" as="geometry">
            <mxPoint x="860" y="630" as="sourcePoint" />
            <mxPoint x="910" y="580" as="targetPoint" />
          </mxGeometry>
        </mxCell>
        <mxCell id="JiS2Ytl3aRO11iRvN7Su-100" value="Achived" style="rhombus;whiteSpace=wrap;html=1;fillColor=#e1d5e7;strokeColor=#9673a6;" parent="1" vertex="1">
          <mxGeometry x="980" y="480" width="80" height="80" as="geometry" />
        </mxCell>
        <mxCell id="JiS2Ytl3aRO11iRvN7Su-103" value="" style="endArrow=none;html=1;rounded=0;exitX=0.5;exitY=0;exitDx=0;exitDy=0;" parent="1" source="JiS2Ytl3aRO11iRvN7Su-98" target="JiS2Ytl3aRO11iRvN7Su-100" edge="1">
          <mxGeometry width="50" height="50" relative="1" as="geometry">
            <mxPoint x="970" y="540" as="sourcePoint" />
            <mxPoint x="1020" y="490" as="targetPoint" />
          </mxGeometry>
        </mxCell>
        <mxCell id="JiS2Ytl3aRO11iRvN7Su-104" value="(1,1)" style="text;html=1;strokeColor=none;fillColor=none;align=center;verticalAlign=middle;whiteSpace=wrap;rounded=0;" parent="1" vertex="1">
          <mxGeometry x="1020" y="560" width="60" height="30" as="geometry" />
        </mxCell>
        <mxCell id="JiS2Ytl3aRO11iRvN7Su-105" value="(1,1)" style="text;html=1;strokeColor=none;fillColor=none;align=center;verticalAlign=middle;whiteSpace=wrap;rounded=0;" parent="1" vertex="1">
          <mxGeometry x="880" y="630" width="60" height="30" as="geometry" />
        </mxCell>
        <mxCell id="JiS2Ytl3aRO11iRvN7Su-106" value="&lt;font style=&quot;font-size: 9px;&quot;&gt;&lt;u&gt;Personal ID&lt;/u&gt;&lt;/font&gt;" style="ellipse;whiteSpace=wrap;html=1;" parent="1" vertex="1">
          <mxGeometry x="1290" y="470" width="60" height="30" as="geometry" />
        </mxCell>
        <mxCell id="JiS2Ytl3aRO11iRvN7Su-107" value="&lt;font size=&quot;1&quot;&gt;&lt;span style=&quot;font-size: 9px;&quot;&gt;Successful/Unsuccessful serves&lt;/span&gt;&lt;/font&gt;" style="ellipse;whiteSpace=wrap;html=1;" parent="1" vertex="1">
          <mxGeometry x="1220" y="590" width="130" height="40" as="geometry" />
        </mxCell>
        <mxCell id="JiS2Ytl3aRO11iRvN7Su-108" value="&lt;font size=&quot;1&quot;&gt;&lt;span style=&quot;font-size: 9px;&quot;&gt;As serves&lt;/span&gt;&lt;/font&gt;" style="ellipse;whiteSpace=wrap;html=1;" parent="1" vertex="1">
          <mxGeometry x="1290" y="430" width="60" height="30" as="geometry" />
        </mxCell>
        <mxCell id="JiS2Ytl3aRO11iRvN7Su-109" value="&lt;font size=&quot;1&quot;&gt;&lt;span style=&quot;font-size: 9px;&quot;&gt;Time played&lt;/span&gt;&lt;/font&gt;" style="ellipse;whiteSpace=wrap;html=1;" parent="1" vertex="1">
          <mxGeometry x="1290" y="510" width="60" height="30" as="geometry" />
        </mxCell>
        <mxCell id="JiS2Ytl3aRO11iRvN7Su-110" value="&lt;font size=&quot;1&quot;&gt;&lt;span style=&quot;font-size: 9px;&quot;&gt;Forced/Unforced errors&lt;/span&gt;&lt;/font&gt;" style="ellipse;whiteSpace=wrap;html=1;" parent="1" vertex="1">
          <mxGeometry x="1220" y="640" width="130" height="40" as="geometry" />
        </mxCell>
        <mxCell id="JiS2Ytl3aRO11iRvN7Su-111" value="&lt;font size=&quot;1&quot;&gt;&lt;span style=&quot;font-size: 9px;&quot;&gt;Points&lt;/span&gt;&lt;/font&gt;" style="ellipse;whiteSpace=wrap;html=1;" parent="1" vertex="1">
          <mxGeometry x="1290" y="550" width="60" height="30" as="geometry" />
        </mxCell>
        <mxCell id="JiS2Ytl3aRO11iRvN7Su-112" value="&lt;font size=&quot;1&quot;&gt;&lt;span style=&quot;font-size: 9px;&quot;&gt;Resault&lt;/span&gt;&lt;/font&gt;" style="ellipse;whiteSpace=wrap;html=1;" parent="1" vertex="1">
          <mxGeometry x="1290" y="385" width="60" height="30" as="geometry" />
        </mxCell>
        <mxCell id="JiS2Ytl3aRO11iRvN7Su-115" value="&lt;font size=&quot;1&quot;&gt;&lt;span style=&quot;font-size: 9px;&quot;&gt;Stage&lt;/span&gt;&lt;/font&gt;" style="ellipse;whiteSpace=wrap;html=1;fillColor=#fff2cc;strokeColor=#d6b656;" parent="1" vertex="1">
          <mxGeometry x="1070" y="765" width="60" height="30" as="geometry" />
        </mxCell>
        <mxCell id="JiS2Ytl3aRO11iRvN7Su-117" value="" style="endArrow=none;html=1;rounded=0;entryX=0;entryY=0.5;entryDx=0;entryDy=0;exitX=1;exitY=0.5;exitDx=0;exitDy=0;" parent="1" source="JiS2Ytl3aRO11iRvN7Su-24" target="JiS2Ytl3aRO11iRvN7Su-112" edge="1">
          <mxGeometry width="50" height="50" relative="1" as="geometry">
            <mxPoint x="870" y="430" as="sourcePoint" />
            <mxPoint x="920" y="380" as="targetPoint" />
          </mxGeometry>
        </mxCell>
        <mxCell id="JiS2Ytl3aRO11iRvN7Su-118" value="" style="endArrow=none;html=1;rounded=0;entryX=0;entryY=0.5;entryDx=0;entryDy=0;exitX=1;exitY=0.5;exitDx=0;exitDy=0;" parent="1" source="JiS2Ytl3aRO11iRvN7Su-24" target="JiS2Ytl3aRO11iRvN7Su-108" edge="1">
          <mxGeometry width="50" height="50" relative="1" as="geometry">
            <mxPoint x="870" y="430" as="sourcePoint" />
            <mxPoint x="920" y="380" as="targetPoint" />
            <Array as="points">
              <mxPoint x="1170" y="400" />
              <mxPoint x="1170" y="445" />
            </Array>
          </mxGeometry>
        </mxCell>
        <mxCell id="JiS2Ytl3aRO11iRvN7Su-119" value="" style="endArrow=none;html=1;rounded=0;entryX=0.017;entryY=0.378;entryDx=0;entryDy=0;entryPerimeter=0;exitX=1;exitY=0.5;exitDx=0;exitDy=0;" parent="1" source="JiS2Ytl3aRO11iRvN7Su-24" target="JiS2Ytl3aRO11iRvN7Su-106" edge="1">
          <mxGeometry width="50" height="50" relative="1" as="geometry">
            <mxPoint x="870" y="430" as="sourcePoint" />
            <mxPoint x="1050" y="190" as="targetPoint" />
            <Array as="points">
              <mxPoint x="1160" y="400" />
              <mxPoint x="1160" y="480" />
            </Array>
          </mxGeometry>
        </mxCell>
        <mxCell id="JiS2Ytl3aRO11iRvN7Su-120" value="" style="endArrow=none;html=1;rounded=0;entryX=0;entryY=0.5;entryDx=0;entryDy=0;exitX=1;exitY=0.5;exitDx=0;exitDy=0;" parent="1" source="JiS2Ytl3aRO11iRvN7Su-24" target="JiS2Ytl3aRO11iRvN7Su-109" edge="1">
          <mxGeometry width="50" height="50" relative="1" as="geometry">
            <mxPoint x="1070" y="280" as="sourcePoint" />
            <mxPoint x="1050" y="230" as="targetPoint" />
            <Array as="points">
              <mxPoint x="1150" y="400" />
              <mxPoint x="1150" y="525" />
            </Array>
          </mxGeometry>
        </mxCell>
        <mxCell id="JiS2Ytl3aRO11iRvN7Su-121" value="" style="endArrow=none;html=1;rounded=0;entryX=0;entryY=0.5;entryDx=0;entryDy=0;exitX=1;exitY=0.5;exitDx=0;exitDy=0;" parent="1" source="JiS2Ytl3aRO11iRvN7Su-24" target="JiS2Ytl3aRO11iRvN7Su-111" edge="1">
          <mxGeometry width="50" height="50" relative="1" as="geometry">
            <mxPoint x="870" y="430" as="sourcePoint" />
            <mxPoint x="920" y="380" as="targetPoint" />
            <Array as="points">
              <mxPoint x="1140" y="400" />
              <mxPoint x="1140" y="565" />
            </Array>
          </mxGeometry>
        </mxCell>
        <mxCell id="JiS2Ytl3aRO11iRvN7Su-122" value="" style="endArrow=none;html=1;rounded=0;entryX=0;entryY=0.5;entryDx=0;entryDy=0;exitX=1;exitY=0.5;exitDx=0;exitDy=0;" parent="1" source="JiS2Ytl3aRO11iRvN7Su-24" target="JiS2Ytl3aRO11iRvN7Su-107" edge="1">
          <mxGeometry width="50" height="50" relative="1" as="geometry">
            <mxPoint x="870" y="430" as="sourcePoint" />
            <mxPoint x="920" y="380" as="targetPoint" />
            <Array as="points">
              <mxPoint x="1130" y="400" />
              <mxPoint x="1130" y="610" />
            </Array>
          </mxGeometry>
        </mxCell>
        <mxCell id="JiS2Ytl3aRO11iRvN7Su-123" value="" style="endArrow=none;html=1;rounded=0;entryX=0;entryY=0.5;entryDx=0;entryDy=0;exitX=1;exitY=0.5;exitDx=0;exitDy=0;" parent="1" source="JiS2Ytl3aRO11iRvN7Su-24" target="JiS2Ytl3aRO11iRvN7Su-110" edge="1">
          <mxGeometry width="50" height="50" relative="1" as="geometry">
            <mxPoint x="870" y="430" as="sourcePoint" />
            <mxPoint x="920" y="380" as="targetPoint" />
            <Array as="points">
              <mxPoint x="1120" y="400" />
              <mxPoint x="1120" y="660" />
            </Array>
          </mxGeometry>
        </mxCell>
        <mxCell id="JiS2Ytl3aRO11iRvN7Su-124" value="" style="endArrow=none;html=1;rounded=0;exitX=0.5;exitY=0;exitDx=0;exitDy=0;" parent="1" source="gjMS_P8bk0o3SLN0zVJh-20" edge="1">
          <mxGeometry width="50" height="50" relative="1" as="geometry">
            <mxPoint x="970" y="700" as="sourcePoint" />
            <mxPoint x="1020" y="650" as="targetPoint" />
            <Array as="points">
              <mxPoint x="755" y="700" />
              <mxPoint x="1020" y="700" />
            </Array>
          </mxGeometry>
        </mxCell>
        <mxCell id="JiS2Ytl3aRO11iRvN7Su-125" value="" style="endArrow=none;html=1;rounded=0;exitX=0.5;exitY=0;exitDx=0;exitDy=0;" parent="1" source="JiS2Ytl3aRO11iRvN7Su-84" edge="1">
          <mxGeometry width="50" height="50" relative="1" as="geometry">
            <mxPoint x="970" y="700" as="sourcePoint" />
            <mxPoint x="1020" y="650" as="targetPoint" />
            <Array as="points">
              <mxPoint x="905" y="700" />
              <mxPoint x="1020" y="700" />
            </Array>
          </mxGeometry>
        </mxCell>
        <mxCell id="JiS2Ytl3aRO11iRvN7Su-126" value="" style="endArrow=none;html=1;rounded=0;exitX=0.5;exitY=0;exitDx=0;exitDy=0;" parent="1" source="JiS2Ytl3aRO11iRvN7Su-60" edge="1">
          <mxGeometry width="50" height="50" relative="1" as="geometry">
            <mxPoint x="970" y="700" as="sourcePoint" />
            <mxPoint x="1020" y="650" as="targetPoint" />
          </mxGeometry>
        </mxCell>
        <mxCell id="JiS2Ytl3aRO11iRvN7Su-127" value="" style="endArrow=none;html=1;rounded=0;exitX=0.5;exitY=0;exitDx=0;exitDy=0;" parent="1" source="JiS2Ytl3aRO11iRvN7Su-115" edge="1">
          <mxGeometry width="50" height="50" relative="1" as="geometry">
            <mxPoint x="1000" y="760" as="sourcePoint" />
            <mxPoint x="1020" y="650" as="targetPoint" />
            <Array as="points">
              <mxPoint x="1100" y="700" />
              <mxPoint x="1020" y="700" />
            </Array>
          </mxGeometry>
        </mxCell>
        <mxCell id="JiS2Ytl3aRO11iRvN7Su-128" value="" style="endArrow=none;html=1;rounded=0;exitX=0.5;exitY=0;exitDx=0;exitDy=0;" parent="1" source="JiS2Ytl3aRO11iRvN7Su-83" edge="1">
          <mxGeometry width="50" height="50" relative="1" as="geometry">
            <mxPoint x="970" y="700" as="sourcePoint" />
            <mxPoint x="1020" y="650" as="targetPoint" />
            <Array as="points">
              <mxPoint x="1170" y="700" />
              <mxPoint x="1020" y="700" />
            </Array>
          </mxGeometry>
        </mxCell>
        <mxCell id="JiS2Ytl3aRO11iRvN7Su-129" value="" style="endArrow=none;html=1;rounded=0;exitX=0.5;exitY=0;exitDx=0;exitDy=0;" parent="1" source="JiS2Ytl3aRO11iRvN7Su-86" edge="1">
          <mxGeometry width="50" height="50" relative="1" as="geometry">
            <mxPoint x="970" y="700" as="sourcePoint" />
            <mxPoint x="1020" y="650" as="targetPoint" />
            <Array as="points">
              <mxPoint x="1245" y="700" />
              <mxPoint x="1020" y="700" />
            </Array>
          </mxGeometry>
        </mxCell>
        <mxCell id="JiS2Ytl3aRO11iRvN7Su-130" value="" style="endArrow=none;html=1;rounded=0;exitX=0.5;exitY=0;exitDx=0;exitDy=0;" parent="1" source="JiS2Ytl3aRO11iRvN7Su-85" edge="1">
          <mxGeometry width="50" height="50" relative="1" as="geometry">
            <mxPoint x="970" y="700" as="sourcePoint" />
            <mxPoint x="1020" y="650" as="targetPoint" />
            <Array as="points">
              <mxPoint x="1320" y="700" />
              <mxPoint x="1020" y="700" />
            </Array>
          </mxGeometry>
        </mxCell>
        <mxCell id="gjMS_P8bk0o3SLN0zVJh-1" value="&lt;font size=&quot;1&quot;&gt;&lt;span style=&quot;font-size: 9px;&quot;&gt;Forced/Unforced errors&lt;/span&gt;&lt;/font&gt;" style="ellipse;whiteSpace=wrap;html=1;fillColor=#fff2cc;strokeColor=#d6b656;" parent="1" vertex="1">
          <mxGeometry x="1220" y="640" width="130" height="40" as="geometry" />
        </mxCell>
        <mxCell id="gjMS_P8bk0o3SLN0zVJh-2" value="&lt;font size=&quot;1&quot;&gt;&lt;span style=&quot;font-size: 9px;&quot;&gt;Successful/Unsuccessful serves&lt;/span&gt;&lt;/font&gt;" style="ellipse;whiteSpace=wrap;html=1;fillColor=#fff2cc;strokeColor=#d6b656;" parent="1" vertex="1">
          <mxGeometry x="1220" y="590" width="130" height="40" as="geometry" />
        </mxCell>
        <mxCell id="gjMS_P8bk0o3SLN0zVJh-3" value="&lt;font size=&quot;1&quot;&gt;&lt;span style=&quot;font-size: 9px;&quot;&gt;Points&lt;/span&gt;&lt;/font&gt;" style="ellipse;whiteSpace=wrap;html=1;fillColor=#fff2cc;strokeColor=#d6b656;" parent="1" vertex="1">
          <mxGeometry x="1290" y="550" width="60" height="30" as="geometry" />
        </mxCell>
        <mxCell id="gjMS_P8bk0o3SLN0zVJh-4" value="&lt;font size=&quot;1&quot;&gt;&lt;span style=&quot;font-size: 9px;&quot;&gt;Time played&lt;/span&gt;&lt;/font&gt;" style="ellipse;whiteSpace=wrap;html=1;fillColor=#fff2cc;strokeColor=#d6b656;" parent="1" vertex="1">
          <mxGeometry x="1290" y="510" width="60" height="30" as="geometry" />
        </mxCell>
        <mxCell id="gjMS_P8bk0o3SLN0zVJh-5" value="&lt;font style=&quot;font-size: 9px;&quot;&gt;&lt;u&gt;Personal ID&lt;/u&gt;&lt;/font&gt;" style="ellipse;whiteSpace=wrap;html=1;fillColor=#fff2cc;strokeColor=#d6b656;" parent="1" vertex="1">
          <mxGeometry x="1290" y="470" width="60" height="30" as="geometry" />
        </mxCell>
        <mxCell id="gjMS_P8bk0o3SLN0zVJh-6" value="&lt;font size=&quot;1&quot;&gt;&lt;span style=&quot;font-size: 9px;&quot;&gt;As serves&lt;/span&gt;&lt;/font&gt;" style="ellipse;whiteSpace=wrap;html=1;fillColor=#fff2cc;strokeColor=#d6b656;" parent="1" vertex="1">
          <mxGeometry x="1290" y="430" width="60" height="30" as="geometry" />
        </mxCell>
        <mxCell id="gjMS_P8bk0o3SLN0zVJh-7" value="&lt;font size=&quot;1&quot;&gt;&lt;span style=&quot;font-size: 9px;&quot;&gt;Resault&lt;/span&gt;&lt;/font&gt;" style="ellipse;whiteSpace=wrap;html=1;fillColor=#fff2cc;strokeColor=#d6b656;" parent="1" vertex="1">
          <mxGeometry x="1290" y="385" width="60" height="30" as="geometry" />
        </mxCell>
        <mxCell id="gjMS_P8bk0o3SLN0zVJh-8" value="&lt;font size=&quot;1&quot;&gt;&lt;span style=&quot;font-size: 9px;&quot;&gt;Time played&lt;/span&gt;&lt;/font&gt;" style="ellipse;whiteSpace=wrap;html=1;fillColor=#fff2cc;strokeColor=#d6b656;" parent="1" vertex="1">
          <mxGeometry x="897.5" y="245" width="60" height="30" as="geometry" />
        </mxCell>
        <mxCell id="gjMS_P8bk0o3SLN0zVJh-9" value="&lt;font size=&quot;1&quot;&gt;&lt;span style=&quot;font-size: 9px;&quot;&gt;Forced/Unforced errors&lt;/span&gt;&lt;/font&gt;" style="ellipse;whiteSpace=wrap;html=1;fillColor=#fff2cc;strokeColor=#d6b656;" parent="1" vertex="1">
          <mxGeometry x="985" y="240" width="130" height="40" as="geometry" />
        </mxCell>
        <mxCell id="gjMS_P8bk0o3SLN0zVJh-10" value="&lt;font size=&quot;1&quot;&gt;&lt;span style=&quot;font-size: 9px;&quot;&gt;Points&lt;/span&gt;&lt;/font&gt;" style="ellipse;whiteSpace=wrap;html=1;fillColor=#fff2cc;strokeColor=#d6b656;" parent="1" vertex="1">
          <mxGeometry x="817.5" y="245" width="60" height="30" as="geometry" />
        </mxCell>
        <mxCell id="gjMS_P8bk0o3SLN0zVJh-11" value="&lt;font size=&quot;1&quot;&gt;&lt;span style=&quot;font-size: 9px;&quot;&gt;Stage&lt;/span&gt;&lt;/font&gt;" style="ellipse;whiteSpace=wrap;html=1;fillColor=#fff2cc;strokeColor=#d6b656;" parent="1" vertex="1">
          <mxGeometry x="737.5" y="245" width="60" height="30" as="geometry" />
        </mxCell>
        <mxCell id="gjMS_P8bk0o3SLN0zVJh-12" value="&lt;font style=&quot;font-size: 9px;&quot;&gt;Surface&lt;/font&gt;" style="ellipse;whiteSpace=wrap;html=1;fillColor=#fff2cc;strokeColor=#d6b656;" parent="1" vertex="1">
          <mxGeometry x="657.5" y="245" width="60" height="30" as="geometry" />
        </mxCell>
        <mxCell id="gjMS_P8bk0o3SLN0zVJh-13" value="&lt;font size=&quot;1&quot;&gt;&lt;span style=&quot;font-size: 9px;&quot;&gt;Resaults&lt;/span&gt;&lt;/font&gt;" style="ellipse;whiteSpace=wrap;html=1;fillColor=#fff2cc;strokeColor=#d6b656;" parent="1" vertex="1">
          <mxGeometry x="580" y="245" width="60" height="30" as="geometry" />
        </mxCell>
        <mxCell id="gjMS_P8bk0o3SLN0zVJh-14" value="&lt;font size=&quot;1&quot;&gt;&lt;span style=&quot;font-size: 9px;&quot;&gt;As serves&lt;/span&gt;&lt;/font&gt;" style="ellipse;whiteSpace=wrap;html=1;fillColor=#fff2cc;strokeColor=#d6b656;" parent="1" vertex="1">
          <mxGeometry x="487.5" y="245" width="60" height="30" as="geometry" />
        </mxCell>
        <mxCell id="gjMS_P8bk0o3SLN0zVJh-15" value="&lt;font size=&quot;1&quot;&gt;&lt;span style=&quot;font-size: 9px;&quot;&gt;Successful/Unsuccessful serves&lt;/span&gt;&lt;/font&gt;" style="ellipse;whiteSpace=wrap;html=1;fillColor=#fff2cc;strokeColor=#d6b656;" parent="1" vertex="1">
          <mxGeometry x="1130" y="240" width="130" height="40" as="geometry" />
        </mxCell>
        <mxCell id="gjMS_P8bk0o3SLN0zVJh-16" value="&lt;font style=&quot;font-size: 9px;&quot;&gt;&lt;u&gt;Match ID&lt;/u&gt;&lt;/font&gt;" style="ellipse;whiteSpace=wrap;html=1;fillColor=#fff2cc;strokeColor=#d6b656;" parent="1" vertex="1">
          <mxGeometry x="387.5" y="245" width="60" height="30" as="geometry" />
        </mxCell>
        <mxCell id="gjMS_P8bk0o3SLN0zVJh-17" value="&lt;font style=&quot;font-size: 9px;&quot;&gt;&lt;u&gt;Personal ID&lt;/u&gt;&lt;/font&gt;" style="ellipse;whiteSpace=wrap;html=1;fillColor=#fff2cc;strokeColor=#d6b656;" parent="1" vertex="1">
          <mxGeometry x="390" y="615" width="60" height="30" as="geometry" />
        </mxCell>
        <mxCell id="gjMS_P8bk0o3SLN0zVJh-18" value="&lt;font size=&quot;1&quot;&gt;&lt;u&gt;Name&lt;/u&gt;&lt;/font&gt;" style="ellipse;whiteSpace=wrap;html=1;fillColor=#fff2cc;strokeColor=#d6b656;" parent="1" vertex="1">
          <mxGeometry x="580" y="765" width="60" height="30" as="geometry" />
        </mxCell>
        <mxCell id="gjMS_P8bk0o3SLN0zVJh-19" value="&lt;font size=&quot;1&quot;&gt;&lt;span style=&quot;font-size: 9px;&quot;&gt;Starting date&lt;/span&gt;&lt;/font&gt;" style="ellipse;whiteSpace=wrap;html=1;fillColor=#fff2cc;strokeColor=#d6b656;" parent="1" vertex="1">
          <mxGeometry x="470" y="765" width="60" height="30" as="geometry" />
        </mxCell>
        <mxCell id="gjMS_P8bk0o3SLN0zVJh-20" value="&lt;font size=&quot;1&quot;&gt;&lt;span style=&quot;font-size: 9px;&quot;&gt;Successful/Unsuccessful serves&lt;/span&gt;&lt;/font&gt;" style="ellipse;whiteSpace=wrap;html=1;fillColor=#fff2cc;strokeColor=#d6b656;" parent="1" vertex="1">
          <mxGeometry x="690" y="760" width="130" height="40" as="geometry" />
        </mxCell>
        <mxCell id="Bej20b6Pe66RZADNoCV_-3" value="" style="endArrow=none;html=1;rounded=0;entryX=0;entryY=0.5;entryDx=0;entryDy=0;" parent="1" target="JiS2Ytl3aRO11iRvN7Su-24" edge="1">
          <mxGeometry width="50" height="50" relative="1" as="geometry">
            <mxPoint x="860" y="400" as="sourcePoint" />
            <mxPoint x="910" y="350" as="targetPoint" />
          </mxGeometry>
        </mxCell>
        <mxCell id="Bej20b6Pe66RZADNoCV_-4" value="" style="endArrow=none;html=1;rounded=0;entryX=0.5;entryY=1;entryDx=0;entryDy=0;" parent="1" target="JiS2Ytl3aRO11iRvN7Su-11" edge="1">
          <mxGeometry width="50" height="50" relative="1" as="geometry">
            <mxPoint x="420" y="500" as="sourcePoint" />
            <mxPoint x="470" y="450" as="targetPoint" />
          </mxGeometry>
        </mxCell>
        <mxCell id="Bej20b6Pe66RZADNoCV_-5" value="" style="endArrow=none;html=1;rounded=0;entryX=0.5;entryY=1;entryDx=0;entryDy=0;" parent="1" target="JiS2Ytl3aRO11iRvN7Su-6" edge="1">
          <mxGeometry width="50" height="50" relative="1" as="geometry">
            <mxPoint x="610" y="480" as="sourcePoint" />
            <mxPoint x="660" y="430" as="targetPoint" />
          </mxGeometry>
        </mxCell>
        <mxCell id="Bej20b6Pe66RZADNoCV_-6" value="" style="endArrow=none;html=1;rounded=0;exitX=0.5;exitY=0;exitDx=0;exitDy=0;entryX=0.5;entryY=1;entryDx=0;entryDy=0;" parent="1" source="JiS2Ytl3aRO11iRvN7Su-100" target="JiS2Ytl3aRO11iRvN7Su-24" edge="1">
          <mxGeometry width="50" height="50" relative="1" as="geometry">
            <mxPoint x="1020" y="470" as="sourcePoint" />
            <mxPoint x="1010" y="450" as="targetPoint" />
          </mxGeometry>
        </mxCell>
        <mxCell id="uOMkGAnZob9GP4pYXzT7-1" value="&lt;font size=&quot;1&quot;&gt;&lt;span style=&quot;font-size: 9px;&quot;&gt;Name&lt;/span&gt;&lt;/font&gt;" style="ellipse;whiteSpace=wrap;html=1;fillColor=#fff2cc;strokeColor=#d6b656;" vertex="1" parent="1">
          <mxGeometry x="240" y="615" width="60" height="30" as="geometry" />
        </mxCell>
        <mxCell id="uOMkGAnZob9GP4pYXzT7-2" value="&lt;font size=&quot;1&quot;&gt;&lt;span style=&quot;font-size: 9px;&quot;&gt;Last name&lt;/span&gt;&lt;/font&gt;" style="ellipse;whiteSpace=wrap;html=1;fillColor=#fff2cc;strokeColor=#d6b656;" vertex="1" parent="1">
          <mxGeometry x="310" y="615" width="60" height="30" as="geometry" />
        </mxCell>
        <mxCell id="uOMkGAnZob9GP4pYXzT7-3" value="" style="endArrow=none;html=1;rounded=0;" edge="1" parent="1">
          <mxGeometry width="50" height="50" relative="1" as="geometry">
            <mxPoint x="340" y="615" as="sourcePoint" />
            <mxPoint x="420" y="570" as="targetPoint" />
            <Array as="points">
              <mxPoint x="340" y="570" />
            </Array>
          </mxGeometry>
        </mxCell>
        <mxCell id="uOMkGAnZob9GP4pYXzT7-4" value="" style="endArrow=none;html=1;rounded=0;exitX=0.5;exitY=0;exitDx=0;exitDy=0;" edge="1" parent="1" source="uOMkGAnZob9GP4pYXzT7-1">
          <mxGeometry width="50" height="50" relative="1" as="geometry">
            <mxPoint x="280" y="580" as="sourcePoint" />
            <mxPoint x="420" y="570" as="targetPoint" />
            <Array as="points">
              <mxPoint x="270" y="570" />
            </Array>
          </mxGeometry>
        </mxCell>
        <mxCell id="uOMkGAnZob9GP4pYXzT7-5" value="&lt;font size=&quot;1&quot;&gt;&lt;span style=&quot;font-size: 9px;&quot;&gt;Name&lt;/span&gt;&lt;/font&gt;" style="ellipse;whiteSpace=wrap;html=1;fillColor=#fff2cc;strokeColor=#d6b656;" vertex="1" parent="1">
          <mxGeometry x="1360" y="765" width="60" height="30" as="geometry" />
        </mxCell>
        <mxCell id="uOMkGAnZob9GP4pYXzT7-6" value="&lt;font size=&quot;1&quot;&gt;&lt;span style=&quot;font-size: 9px;&quot;&gt;Last name&lt;/span&gt;&lt;/font&gt;" style="ellipse;whiteSpace=wrap;html=1;fillColor=#fff2cc;strokeColor=#d6b656;" vertex="1" parent="1">
          <mxGeometry x="1430" y="765" width="60" height="30" as="geometry" />
        </mxCell>
        <mxCell id="uOMkGAnZob9GP4pYXzT7-8" value="" style="endArrow=none;html=1;rounded=0;exitX=0.5;exitY=0;exitDx=0;exitDy=0;" edge="1" parent="1" source="uOMkGAnZob9GP4pYXzT7-5">
          <mxGeometry width="50" height="50" relative="1" as="geometry">
            <mxPoint x="970" y="700" as="sourcePoint" />
            <mxPoint x="1020" y="650" as="targetPoint" />
            <Array as="points">
              <mxPoint x="1390" y="700" />
              <mxPoint x="1020" y="700" />
            </Array>
          </mxGeometry>
        </mxCell>
        <mxCell id="uOMkGAnZob9GP4pYXzT7-9" value="" style="endArrow=none;html=1;rounded=0;exitX=0.5;exitY=0;exitDx=0;exitDy=0;entryX=0.5;entryY=1;entryDx=0;entryDy=0;" edge="1" parent="1" source="uOMkGAnZob9GP4pYXzT7-6" target="JiS2Ytl3aRO11iRvN7Su-98">
          <mxGeometry width="50" height="50" relative="1" as="geometry">
            <mxPoint x="1460" y="760" as="sourcePoint" />
            <mxPoint x="1510" y="710" as="targetPoint" />
            <Array as="points">
              <mxPoint x="1460" y="700" />
              <mxPoint x="1020" y="700" />
            </Array>
          </mxGeometry>
        </mxCell>
        <mxCell id="uOMkGAnZob9GP4pYXzT7-10" value="&lt;font size=&quot;1&quot;&gt;&lt;span style=&quot;font-size: 9px;&quot;&gt;Last name&lt;/span&gt;&lt;/font&gt;" style="ellipse;whiteSpace=wrap;html=1;fillColor=#fff2cc;strokeColor=#d6b656;" vertex="1" parent="1">
          <mxGeometry x="1290" y="300" width="60" height="30" as="geometry" />
        </mxCell>
        <mxCell id="uOMkGAnZob9GP4pYXzT7-11" value="&lt;font size=&quot;1&quot;&gt;&lt;span style=&quot;font-size: 9px;&quot;&gt;Name&lt;/span&gt;&lt;/font&gt;" style="ellipse;whiteSpace=wrap;html=1;fillColor=#fff2cc;strokeColor=#d6b656;" vertex="1" parent="1">
          <mxGeometry x="1290" y="340" width="60" height="30" as="geometry" />
        </mxCell>
        <mxCell id="uOMkGAnZob9GP4pYXzT7-12" value="" style="endArrow=none;html=1;rounded=0;entryX=0;entryY=0.5;entryDx=0;entryDy=0;" edge="1" parent="1" target="uOMkGAnZob9GP4pYXzT7-10">
          <mxGeometry width="50" height="50" relative="1" as="geometry">
            <mxPoint x="1180" y="400" as="sourcePoint" />
            <mxPoint x="1250" y="340" as="targetPoint" />
            <Array as="points">
              <mxPoint x="1180" y="360" />
              <mxPoint x="1210" y="360" />
              <mxPoint x="1210" y="315" />
            </Array>
          </mxGeometry>
        </mxCell>
        <mxCell id="uOMkGAnZob9GP4pYXzT7-13" value="" style="endArrow=none;html=1;rounded=0;entryX=0;entryY=0.5;entryDx=0;entryDy=0;exitX=1;exitY=0.5;exitDx=0;exitDy=0;" edge="1" parent="1" source="JiS2Ytl3aRO11iRvN7Su-24" target="uOMkGAnZob9GP4pYXzT7-11">
          <mxGeometry width="50" height="50" relative="1" as="geometry">
            <mxPoint x="1230" y="390" as="sourcePoint" />
            <mxPoint x="1280" y="340" as="targetPoint" />
            <Array as="points">
              <mxPoint x="1240" y="400" />
              <mxPoint x="1240" y="356" />
            </Array>
          </mxGeometry>
        </mxCell>
      </root>
    </mxGraphModel>
  </diagram>
</mxfile>
